PathFileType	4	(X/Y/Z)	 s09c0001.trc
DataRate	CameraRate	NumFrames	NumMarkers	Units	OrigDataRate	OrigDataStartFrame	OrigNumFrames
200	200	7	49	mm	200	251	2000
Frame#	Time	racr			lacr			c7			jug			rlel			rdr			llel			ldr			s2			lic			ric			lasi			rasi			rpsi			lpsi			rgt			lgt			rth1			rth2			rth3			rth4			rlfc			rmfc			rsh1			rsh2			rsh3			rsh4			rlmal			rmmal			rcal			rtoe			rmt5			rmt1			lth1			lth2			lth4			lth3			llfc			lmfc			llmal			lmmal			lcal			lmt1			lmt5			lsh1			lsh2			lsh3			lsh4			ltoe			
		X1	Y1	Z1	X2	Y2	Z2	X3	Y3	Z3	X4	Y4	Z4	X5	Y5	Z5	X6	Y6	Z6	X7	Y7	Z7	X8	Y8	Z8	X9	Y9	Z9	X10	Y10	Z10	X11	Y11	Z11	X12	Y12	Z12	X13	Y13	Z13	X14	Y14	Z14	X15	Y15	Z15	X16	Y16	Z16	X17	Y17	Z17	X18	Y18	Z18	X19	Y19	Z19	X20	Y20	Z20	X21	Y21	Z21	X22	Y22	Z22	X23	Y23	Z23	X24	Y24	Z24	X25	Y25	Z25	X26	Y26	Z26	X27	Y27	Z27	X28	Y28	Z28	X29	Y29	Z29	X30	Y30	Z30	X31	Y31	Z31	X32	Y32	Z32	X33	Y33	Z33	X34	Y34	Z34	X35	Y35	Z35	X36	Y36	Z36	X37	Y37	Z37	X38	Y38	Z38	X39	Y39	Z39	X40	Y40	Z40	X41	Y41	Z41	X42	Y42	Z42	X43	Y43	Z43	X44	Y44	Z44	X45	Y45	Z45	X46	Y46	Z46	X47	Y47	Z47	X48	Y48	Z48	X49	Y49	Z49	
251	1.2550	283.699216	1353.765643	381.586369	285.906253	1336.354551	-11.357095	232.401623	1402.906907	181.879375	356.091194	1351.267650	181.178694	296.834505	1093.406409	448.248988	358.955466	878.958997	578.542950	272.769131	1052.225451	-46.500067	395.858416	896.077132	-194.957919	221.726625	942.550922	184.584238	352.945260	990.864994	49.077403	340.801980	1002.744395	338.525459	409.968170	954.839156	79.988376	400.654925	966.018819	319.839781	225.880524	978.786041	245.006538	226.176773	974.929889	134.250115	326.325298	846.821160	386.796164	330.982347	836.886943	11.597816	349.339124	716.199346	382.482654	364.861934	630.801592	368.844898	332.856396	548.384161	359.173038	395.445396	629.319991	349.078712	319.246480	450.978245	335.419181	302.001914	431.066265	237.413840	278.390104	361.175713	368.481469	302.442206	274.032798	359.960871	279.360502	189.300732	361.463817	328.077935	276.878196	329.904158	276.809904	86.721814	360.398295	286.120908	93.526128	283.861413	219.189480	32.056437	318.037851	471.949476	86.031152	354.340130	388.191142	49.246994	407.103794	401.022745	39.268716	297.160625	341.359373	710.717305	9.891435	356.136527	629.448107	26.187470	391.865601	627.348730	40.185295	327.877144	543.730271	35.276099	309.939123	449.072425	47.601718	318.724616	428.936204	140.555866	268.772525	85.022161	21.841792	291.247722	96.154056	92.557254	218.722522	26.712598	68.100562	406.322335	43.934492	87.267790	381.435920	33.808410	-18.429021	278.887303	355.212710	17.889962	296.555852	270.411433	21.649055	274.800028	198.371419	14.678281	323.487243	270.337324	50.865355	472.643734	79.204600	36.615269	
252	1.2600	283.682735	1353.761410	381.588692	285.881020	1336.360853	-11.349068	232.368159	1402.896604	181.895757	356.046416	1351.258276	181.181661	296.811998	1093.400439	448.258056	358.940922	878.958010	578.546962	272.766004	1052.215936	-46.479884	395.832881	896.067567	-194.950071	221.687558	942.572728	184.565454	352.959673	990.866606	49.056051	340.758056	1002.753260	338.534408	409.928080	954.827252	79.976248	400.641718	966.022132	319.834620	225.867682	978.783529	245.011899	226.157357	974.922369	134.253014	326.318604	846.830160	386.799835	330.983119	836.879799	11.608091	349.335023	716.198991	382.478323	364.839837	630.790003	368.839012	332.952125	548.453217	359.206518	395.438429	629.308927	349.061690	319.240754	450.983272	335.413158	302.018184	431.075606	237.401313	278.385026	361.162559	368.465408	302.445669	274.022487	359.950831	279.356359	189.295731	361.461255	328.118855	276.898378	329.942899	276.789736	86.717658	360.389818	286.148223	93.521531	283.854357	219.172354	32.052413	318.051673	471.953311	86.033730	354.337133	388.189099	49.265148	407.115612	400.991767	39.264731	297.132498	341.339266	710.722596	9.888362	356.124456	629.468032	26.175112	391.872784	627.344037	40.217731	327.854734	543.748918	35.293599	309.922992	449.071280	47.601320	318.717432	428.940894	140.543475	268.775631	85.019063	21.845265	291.255430	96.152521	92.575238	218.718117	26.736421	68.094251	406.314082	43.923166	87.263968	381.445082	33.808909	-18.411839	278.868236	355.218601	17.898921	296.546172	270.383335	21.617940	274.822327	198.360605	14.605988	323.474164	270.320738	50.886001	472.632275	79.180013	36.628940	
253	1.2650	283.666038	1353.739448	381.594849	285.845628	1336.351467	-11.334913	232.340982	1402.907541	181.914456	356.048791	1351.245054	181.183217	296.801892	1093.389988	448.255963	358.959218	878.957804	578.545678	272.771406	1052.203003	-46.469918	395.819526	896.052003	-194.935102	221.680589	942.554437	184.587881	352.927608	990.867033	49.052541	340.760580	1002.751517	338.534477	409.928056	954.829251	79.976798	400.640930	966.028347	319.828944	225.853453	978.788091	245.015624	226.150339	974.918929	134.254195	326.310442	846.833773	386.797499	330.977682	836.886715	11.601637	349.330556	716.206469	382.495146	364.852475	630.795590	368.832763	332.948103	548.463347	359.208301	395.420848	629.304587	349.069561	319.233137	450.982507	335.406169	302.002915	431.071685	237.409906	278.384525	361.162079	368.466443	302.436459	274.020259	359.961285	279.349796	189.287635	361.448619	328.044633	276.865509	329.904672	276.803847	86.718062	360.398291	286.119349	93.531855	283.849866	219.187730	32.043826	318.044549	471.960997	86.029303	354.348647	388.214314	49.248740	407.100161	401.013055	39.255565	297.142636	341.328844	710.721880	9.889418	356.133991	629.451481	26.187858	391.842438	627.344067	40.173753	327.841232	543.746907	35.297679	309.924623	449.080231	47.595462	318.720845	428.959767	140.564037	268.746032	85.007107	21.844397	291.262382	96.157600	92.573422	218.717553	26.748810	68.114980	406.332323	43.929416	87.263864	381.481222	33.835730	-18.435102	278.855681	355.227441	17.889513	296.556318	270.410050	21.648923	274.836544	198.370595	14.723362	323.528009	270.365722	50.874641	472.639375	79.219873	36.627297	
254	1.2700	283.653150	1353.733326	381.588433	285.825620	1336.341641	-11.334336	232.316871	1402.893647	181.898173	356.030114	1351.248871	181.181479	296.793117	1093.383598	448.256612	358.956916	878.942402	578.537090	272.748696	1052.204077	-46.465146	395.822796	896.047881	-194.925295	221.644287	942.557502	184.550099	352.924504	990.863949	49.034262	340.757961	1002.753579	338.536080	409.904218	954.838666	79.955422	400.619825	966.028957	319.839953	225.855482	978.772973	245.007394	226.149715	974.926573	134.250044	326.291239	846.825027	386.793381	330.979641	836.872251	11.616916	349.308550	716.210208	382.489644	364.837323	630.802502	368.835932	332.938873	548.453706	359.202753	395.424687	629.323589	349.065899	319.208894	450.994709	335.399828	301.988911	431.052053	237.404216	278.379037	361.165684	368.469289	302.424208	274.021129	359.965019	279.340842	189.296623	361.465122	328.102619	276.901702	329.927635	276.810147	86.722253	360.416142	286.131324	93.519390	283.856254	219.189819	32.059191	318.037200	471.955249	86.041415	354.335172	388.190022	49.255099	407.106279	401.017822	39.262736	297.153991	341.324368	710.714340	9.891509	356.125979	629.440142	26.208051	391.862659	627.334261	40.215953	327.851283	543.731837	35.294130	309.909027	449.075917	47.595175	318.712590	428.925375	140.547628	268.766993	85.005965	21.846403	291.258480	96.158460	92.567798	218.722913	26.730206	68.106662	406.324269	43.934754	87.247548	381.481225	33.835742	-18.435140	278.859020	355.212651	17.902488	296.525240	270.400624	21.635844	274.799639	198.366851	14.715259	323.515031	270.356995	50.879030	472.615943	79.187345	36.629299	
255	1.2750	283.634574	1353.725688	381.603630	285.796255	1336.324993	-11.327596	232.327073	1402.887197	181.881372	355.989616	1351.238292	181.181490	296.778222	1093.367639	448.238372	358.936364	878.941346	578.538113	272.720742	1052.195613	-46.471127	395.776801	896.012634	-194.918975	221.659374	942.540685	184.550394	352.898944	990.848627	49.026383	340.716276	1002.756146	338.538491	409.902277	954.823775	79.956791	400.600289	966.016411	319.825126	225.848236	978.785347	245.011532	226.141886	974.922863	134.242590	326.283611	846.836431	386.782283	330.975329	836.880394	11.603998	349.321795	716.212456	382.476779	364.836208	630.805430	368.836955	332.842767	548.366688	359.147471	395.427096	629.310783	349.067212	319.232909	450.989995	335.404637	302.009278	431.077315	237.412973	278.381066	361.161522	368.473087	302.428430	274.023531	359.969339	279.342825	189.293505	361.453376	328.064197	276.865415	329.921480	276.805185	86.721112	360.400369	286.117279	93.526991	283.853342	219.170299	32.065453	318.052546	471.878002	86.223731	354.460176	388.204038	49.257911	407.119358	401.003180	39.257620	297.152646	341.318210	710.712818	9.897377	356.107617	629.442136	26.175551	391.816116	627.332277	40.170903	327.833017	543.746720	35.301200	309.907467	449.071269	47.598830	318.672411	428.939600	140.545234	268.749271	85.005516	21.832818	291.233109	96.163452	92.574045	218.729505	26.732620	68.110670	406.316447	43.950453	87.260276	381.458637	33.822341	-18.432914	278.844983	355.213246	17.889049	296.555807	270.411593	21.649026	274.833592	198.359291	14.641076	323.469701	270.319725	50.885958	472.640464	79.224723	36.624746	
256	1.2800	283.609616	1353.715009	381.596803	285.767389	1336.330300	-11.330931	232.263485	1402.891564	181.913669	355.951784	1351.240100	181.180463	296.778334	1093.363955	448.239547	358.940743	878.932322	578.536243	272.690901	1052.185150	-46.450734	395.760691	896.008261	-194.903476	221.641793	942.547655	184.551655	352.880774	990.849258	49.003380	340.716175	1002.756217	338.538494	409.881491	954.819993	79.968246	400.597761	966.027209	319.826662	225.826213	978.777013	245.006632	226.132381	974.912636	134.238388	326.287049	846.831014	386.783878	330.954186	836.869225	11.600712	349.304928	716.203305	382.476149	364.828207	630.809383	368.846265	332.940363	548.461881	359.195783	395.407031	629.317041	349.067626	319.214893	451.009244	335.415515	301.991043	431.072230	237.387582	278.382182	361.162605	368.462552	302.426968	274.028148	359.970110	279.349481	189.288684	361.448972	328.070847	276.876764	329.929554	276.803757	86.723978	360.403548	286.119915	93.513284	283.853479	219.185384	32.068110	318.041240	471.949808	86.043823	354.344441	388.195638	49.250379	407.112638	401.005032	39.249994	297.148459	341.302272	710.711182	9.886783	356.087188	629.444969	26.178734	391.836422	627.323057	40.203318	327.824624	543.735060	35.290396	309.906630	449.069718	47.599331	318.672090	428.933113	140.546577	268.745464	85.006993	21.840519	291.249022	96.157377	92.564152	218.717773	26.736744	68.114720	406.328538	43.926548	87.254869	381.458640	33.822351	-18.432947	278.826661	355.219294	17.892487	296.523095	270.387250	21.640837	274.798526	198.354311	14.666795	323.468784	270.322553	50.886078	472.635626	79.215167	36.610589	
257	1.2850	283.585122	1353.699001	381.603473	285.741746	1336.323216	-11.317331	232.259319	1402.882455	181.921566	355.943896	1351.229572	181.188136	296.755082	1093.351250	448.238481	358.932550	878.930590	578.534898	272.691532	1052.171192	-46.419627	395.741130	895.998412	-194.904611	221.663366	942.551673	184.549825	352.881844	990.843988	49.012959	340.731110	1002.735829	338.522534	409.868019	954.836927	79.935395	400.589198	966.037364	319.825691	225.834712	978.763158	245.008459	226.125200	974.916367	134.231028	326.262254	846.825070	386.780070	330.950774	836.858292	11.592158	349.301037	716.205537	382.476313	364.819957	630.813369	368.817885	332.810439	548.383050	359.159516	395.415744	629.324671	349.068120	319.234851	450.978175	335.394349	301.986902	431.083958	237.397654	278.371624	361.163699	368.466149	302.434470	274.028551	359.966239	279.342189	189.277966	361.469014	328.105085	276.907851	329.931162	276.788617	86.728724	360.409449	286.118501	93.542175	283.853777	219.174782	32.058012	318.048338	471.962348	86.028889	354.338768	388.180629	49.243160	407.106555	401.013712	39.267483	297.151795	341.296189	710.714834	9.879085	356.094141	629.437872	26.196186	391.803925	627.341522	40.189230	327.817984	543.732677	35.310279	309.891733	449.083465	47.598009	318.658118	428.935029	140.555043	268.754663	85.005321	21.830928	291.242445	96.167793	92.561532	218.708840	26.732545	68.110658	406.308945	43.935074	87.262190	381.481233	33.835775	-18.435244	278.838254	355.222320	17.897124	296.525568	270.399527	21.635852	274.808014	198.369274	14.663933	323.468867	270.354101	50.888027	472.637488	79.208410	36.612744	
